<?xml version="1.0" standalone="no"?>
<svg viewBox="0 0 200 200" xmlns="http://www.w3.org/2000/svg">
  <path fill="#FF0066" d="M31.4,-51.6C45.4,-46.4,64.6,-47.4,69.5,-39.8C74.4,-32.2,64.9,-16.1,59.7,-3C54.5,10.1,53.5,20.2,52.3,34.1C51,48,49.6,65.6,40.8,76.1C32.1,86.5,16,89.7,3.5,83.6C-9,77.6,-18,62.2,-24.5,50.4C-31,38.7,-34.9,30.6,-45.6,22.8C-56.3,15,-73.7,7.5,-81.3,-4.4C-88.8,-16.2,-86.5,-32.4,-76.9,-42.1C-67.3,-51.8,-50.4,-54.9,-36.4,-60C-22.3,-65.1,-11.2,-72.2,-1.2,-70.1C8.7,-68,17.5,-56.7,31.4,-51.6Z" transform="translate(100 100)" />
</svg>
